<?xml version="1.0" encoding="UTF-8"?>
<svg xmlns="http://www.w3.org/2000/svg" xmlns:xlink="http://www.w3.org/1999/xlink" width="30pt" height="30pt" viewBox="0 0 30 30" version="1.1">
<g id="surface6479005">
<path style=" stroke:none;fill-rule:nonzero;fill:rgb(20.392157%,59.607846%,85.882354%);fill-opacity:1;" d="M 15 28.5 C 7.601562 28.5 1.5 22.398438 1.5 15 C 1.5 7.601562 7.601562 1.5 15 1.5 C 22.398438 1.5 28.5 7.601562 28.5 15 C 28.5 22.398438 22.398438 28.5 15 28.5 Z M 15 28.5 "/>
<path style=" stroke:none;fill-rule:nonzero;fill:rgb(20.392157%,59.607846%,85.882354%);fill-opacity:1;" d="M 15 2 C 22.199219 2 28 7.800781 28 15 C 28 22.199219 22.199219 28 15 28 C 7.800781 28 2 22.199219 2 15 C 2 7.800781 7.800781 2 15 2 M 15 1 C 7.300781 1 1 7.300781 1 15 C 1 22.699219 7.300781 29 15 29 C 22.699219 29 29 22.699219 29 15 C 29 7.300781 22.699219 1 15 1 Z M 15 1 "/>
<path style=" stroke:none;fill-rule:nonzero;fill:rgb(100%,100%,100%);fill-opacity:1;" d="M 12.800781 20.800781 L 7.800781 15.699219 L 9.199219 14.300781 L 12.800781 17.898438 L 21.800781 8.898438 L 23.199219 10.398438 Z M 12.800781 20.800781 "/>
</g>
</svg>
